<svg width="174" height="198" viewBox="0 0 174 198" fill="none" xmlns="http://www.w3.org/2000/svg">
<path fill-rule="evenodd" clip-rule="evenodd" d="M2.03109 61.5471C0.357065 62.5136 -0.216498 64.6541 0.75 66.3281L75.75 196.232C76.7165 197.906 78.8571 198.48 80.5311 197.513L148.933 158.021C150.607 157.055 151.181 154.914 150.214 153.24C149.248 151.566 147.107 150.992 145.433 151.959L80.0622 189.701L8.56218 65.8592L107.803 8.56244L159.575 98.2341C160.542 99.9081 162.682 100.482 164.356 99.5152C166.03 98.5487 166.604 96.4081 165.637 94.7341L112.115 2.03136C111.149 0.357332 109.008 -0.216232 107.334 0.750267L2.03109 61.5471ZM63.5877 125.21C61.9136 126.177 61.3401 128.317 62.3066 129.991C63.2731 131.665 65.4136 132.239 67.0877 131.272L135.19 91.9536C136.864 90.9871 137.437 88.8465 136.471 87.1725C135.504 85.4984 133.364 84.9249 131.69 85.8914L63.5877 125.21ZM69.4082 142.292C68.4417 140.618 69.0153 138.477 70.6893 137.51L138.791 98.1917C140.465 97.2252 142.606 97.7988 143.572 99.4728C144.539 101.147 143.965 103.287 142.291 104.254L74.1893 143.573C72.5153 144.539 70.3747 143.966 69.4082 142.292ZM77.791 149.811C76.1169 150.777 75.5434 152.918 76.5099 154.592C77.4764 156.266 79.6169 156.84 81.291 155.873L131.092 127.12C132.766 126.154 133.34 124.013 132.374 122.339C131.407 120.665 129.266 120.092 127.592 121.058L77.791 149.811ZM150.062 124.569L158.29 138.821L164.314 116.34L150.062 124.569ZM142.249 125.037C141.283 123.363 141.857 121.223 143.531 120.256L168.131 106.053C169.357 105.345 170.889 105.446 172.012 106.307C173.135 107.169 173.628 108.623 173.262 109.99L162.865 148.794C162.498 150.161 161.344 151.174 159.941 151.358C158.537 151.543 157.161 150.864 156.453 149.638L142.249 125.037ZM59.7354 61.0325C58.0614 61.999 57.4879 64.1396 58.4544 65.8136L65.7292 78.414C66.6957 80.088 68.8363 80.6616 70.5103 79.6951L86.0797 70.7061L89.6813 76.9443L83.4412 80.547C83.4316 80.5524 83.4221 80.5579 83.4125 80.5634C83.403 80.5689 83.3935 80.5745 83.384 80.5801L74.1119 85.9333C72.4379 86.8998 71.8643 89.0404 72.8308 90.7144C73.7973 92.3884 75.9379 92.962 77.6119 91.9955L83.8815 88.3757L85.7688 91.6446C86.7353 93.3186 88.8759 93.8922 90.5499 92.9257C92.2239 91.9592 92.7975 89.8186 91.831 88.1446L89.9437 84.8757L96.2124 81.2565C97.8864 80.29 98.46 78.1494 97.4935 76.4754L90.3919 64.175C89.4254 62.501 87.2848 61.9274 85.6108 62.8939L70.0414 71.8829L66.2665 65.3447L72.5361 61.7249L81.8359 56.3557C83.51 55.3892 84.0835 53.2486 83.117 51.5746C82.1505 49.9006 80.01 49.327 78.3359 50.2935L72.0672 53.9127L70.353 50.9437C69.3865 49.2696 67.2459 48.6961 65.5719 49.6626C63.8979 50.6291 63.3243 52.7696 64.2908 54.4437L66.005 57.4127L59.7354 61.0325Z" fill="#29282C" fill-opacity="0.15"/>
</svg>
