<svg width="218" height="197" viewBox="0 0 218 197" fill="none" xmlns="http://www.w3.org/2000/svg">
<path opacity="0.2" fill-rule="evenodd" clip-rule="evenodd" d="M38.6382 43.807C37.2574 41.4156 38.0768 38.3576 40.4683 36.9769L90.2615 8.22879C92.653 6.84808 95.7109 7.66745 97.0916 10.0589L107.169 27.5132L153.324 0.865515C155.716 -0.515192 158.773 0.304179 160.154 2.69564L172.532 24.1344C173.568 25.9289 174.47 27.7632 175.242 29.6259L217.305 102.482C218.685 104.873 217.866 107.931 215.475 109.312L65.4036 195.955C63.0121 197.336 59.9542 196.517 58.5735 194.125L9.26252 108.716C8.9145 108.113 8.70626 107.468 8.62774 106.818L1.42296 94.3392C0.0422446 91.9477 0.86162 88.8897 3.25308 87.509L48.7154 61.2613L38.6382 43.807ZM90.9314 19.389L98.5086 32.5132L57.3756 56.2614L49.7984 43.1372L90.9314 19.389ZM166.229 34.0154C172.689 50.4005 166.375 69.4032 150.649 78.483L136.471 86.6682C134.08 88.0489 133.261 91.1069 134.641 93.4984C136.022 95.8898 139.08 96.7092 141.471 95.3285L155.649 87.1433C168.139 79.9319 175.979 67.806 178.133 54.6344L206.144 103.151L64.7337 184.795L36.2204 135.408C48.9719 140.639 63.9191 140.103 76.8095 132.661L90.9867 124.476C93.3782 123.095 94.1976 120.037 92.8168 117.646C91.4361 115.254 88.3782 114.435 85.9867 115.816L71.8095 124.001C54.4912 134 32.4596 128.096 22.4609 110.778L12.5832 93.6693L153.994 12.0258L158.699 20.1748C158.777 20.8247 158.986 21.4698 159.334 22.0725L166.229 34.0154ZM87.7857 86.1919C85.3942 87.5726 84.5748 90.6306 85.9555 93.022L94.1408 107.199C95.5215 109.591 98.5794 110.41 100.971 109.029L118.08 99.1517L121.265 104.669L104.156 114.546C101.765 115.927 100.945 118.985 102.326 121.376C103.707 123.768 106.765 124.587 109.156 123.207L115.545 119.518L117.238 122.45C118.619 124.841 121.677 125.661 124.068 124.28C126.459 122.899 127.279 119.841 125.898 117.45L124.205 114.518L130.595 110.829C132.986 109.448 133.806 106.39 132.425 103.999L124.24 89.8216C122.859 87.4301 119.801 86.6107 117.41 87.9914L100.301 97.8691L97.1158 92.3521L114.224 82.4745C116.616 81.0938 117.435 78.0358 116.055 75.6443C114.674 73.2529 111.616 72.4335 109.224 73.8142L102.835 77.5032L101.142 74.5716C99.7617 72.1801 96.7038 71.3608 94.3123 72.7415C91.9208 74.1222 91.1015 77.1801 92.4822 79.5716L94.1747 82.5032L87.7857 86.1919Z" fill="#29282C"/>
</svg>
